<?xml version="1.0" encoding="UTF-8"?> <svg xmlns="http://www.w3.org/2000/svg" data-v-fde0c5aa="" viewBox="0 0 300 300" class="iconLeft"><defs data-v-fde0c5aa=""><linearGradient data-v-fde0c5aa="" gradientTransform="rotate(25)" id="eb44e25f-c280-4793-90e6-606fd3b5aef7" x1="0%" y1="0%" x2="100%" y2="0%"><stop data-v-fde0c5aa="" offset="0%" stop-color="#32142D" stop-opacity="1"></stop><stop data-v-fde0c5aa="" offset="100%" stop-color="#32142D" stop-opacity="1"></stop></linearGradient></defs><rect data-v-fde0c5aa="" fill="url(#eb44e25f-c280-4793-90e6-606fd3b5aef7)" x="0" y="0" width="300px" height="300px" class="logo-background-square"></rect><defs data-v-fde0c5aa=""></defs><g data-v-fde0c5aa="" id="1e2b0774-b905-471e-94a1-5b6f12056c3b" fill="#ffffff" transform="matrix(1.5106397867202759,0,0,1.5106397867202759,83.98025715538446,134.91645085246995)"><path d="M3.02 13.54L0.42 6.29L2.18 6.29L3.65 10.42L4.84 7.31L4.84 7.31Q4.97 6.97 5.13 6.77L5.13 6.77L5.13 6.77Q5.29 6.57 5.48 6.45L5.48 6.45L5.48 6.45Q5.67 6.34 5.89 6.31L5.89 6.31L5.89 6.31Q6.10 6.27 6.33 6.29L6.33 6.29L7.87 10.36L8.97 7.27L8.97 7.27Q9.13 6.85 9.37 6.61L9.37 6.61L9.37 6.61Q9.62 6.37 9.90 6.27L9.90 6.27L9.90 6.27Q10.19 6.16 10.50 6.17L10.50 6.17L10.50 6.17Q10.81 6.19 11.10 6.29L11.10 6.29L8.48 13.54L7.32 13.54L5.77 9.41L4.17 13.54L3.02 13.54ZM17.16 10.72L17.16 10.72L17.16 10.72Q16.41 10.92 15.79 10.86L15.79 10.86L15.79 10.86Q15.16 10.81 14.76 10.56L14.76 10.56L14.76 10.56Q14.36 10.32 14.23 9.91L14.23 9.91L14.23 9.91Q14.10 9.49 14.31 8.97L14.31 8.97L14.31 8.97Q14.74 9.34 15.32 9.37L15.32 9.37L15.32 9.37Q15.89 9.41 16.42 9.35L16.42 9.35L16.42 9.35Q16.87 9.31 17.10 9.16L17.10 9.16L17.10 9.16Q17.33 9.00 17.39 8.80L17.39 8.80L17.39 8.80Q17.44 8.60 17.35 8.37L17.35 8.37L17.35 8.37Q17.25 8.15 17.03 7.97L17.03 7.97L17.03 7.97Q16.81 7.78 16.50 7.67L16.50 7.67L16.50 7.67Q16.18 7.56 15.81 7.57L15.81 7.57L15.81 7.57Q15.40 7.60 15.04 7.77L15.04 7.77L15.04 7.77Q14.67 7.94 14.39 8.23L14.39 8.23L14.39 8.23Q14.11 8.53 13.94 8.92L13.94 8.92L13.94 8.92Q13.78 9.31 13.76 9.79L13.76 9.79L13.76 9.79Q13.75 10.18 13.85 10.56L13.85 10.56L13.85 10.56Q13.96 10.93 14.17 11.25L14.17 11.25L14.17 11.25Q14.38 11.56 14.67 11.78L14.67 11.78L14.67 11.78Q14.97 12.00 15.34 12.05L15.34 12.05L15.34 12.05Q15.88 12.15 16.44 11.98L16.44 11.98L16.44 11.98Q17.00 11.82 17.43 11.37L17.43 11.37L18.90 12.08L18.90 12.08Q18.33 12.94 17.54 13.31L17.54 13.31L17.54 13.31Q16.76 13.68 15.75 13.68L15.75 13.68L15.75 13.68Q14.81 13.68 14.11 13.35L14.11 13.35L14.11 13.35Q13.40 13.02 12.93 12.47L12.93 12.47L12.93 12.47Q12.46 11.93 12.23 11.24L12.23 11.24L12.23 11.24Q12.00 10.54 12.01 9.82L12.01 9.82L12.01 9.82Q12.03 9.10 12.29 8.41L12.29 8.41L12.29 8.41Q12.56 7.71 13.06 7.18L13.06 7.18L13.06 7.18Q13.62 6.58 14.37 6.33L14.37 6.33L14.37 6.33Q15.12 6.08 15.90 6.08L15.90 6.08L15.90 6.08Q16.77 6.08 17.40 6.37L17.40 6.37L17.40 6.37Q18.03 6.66 18.42 7.12L18.42 7.12L18.42 7.12Q18.82 7.57 18.94 8.13L18.94 8.13L18.94 8.13Q19.07 8.68 18.92 9.20L18.92 9.20L18.92 9.20Q18.77 9.72 18.34 10.13L18.34 10.13L18.34 10.13Q17.91 10.54 17.16 10.72ZM21.97 12.75L21.97 13.52L20.20 13.52L20.20 5.17L20.20 5.17Q20.20 4.59 20.67 4.17L20.67 4.17L20.67 4.17Q21.14 3.75 21.97 3.72L21.97 3.72L21.97 9.37L21.97 9.37Q21.97 9.84 22.06 10.33L22.06 10.33L22.06 10.33Q22.15 10.81 22.36 11.20L22.36 11.20L22.36 11.20Q22.57 11.59 22.93 11.84L22.93 11.84L22.93 11.84Q23.30 12.08 23.84 12.08L23.84 12.08L23.84 12.08Q24.49 12.08 24.91 11.77L24.91 11.77L24.91 11.77Q25.34 11.47 25.55 11.00L25.55 11.00L25.55 11.00Q25.76 10.54 25.75 10.00L25.75 10.00L25.75 10.00Q25.75 9.45 25.53 8.99L25.53 8.99L25.53 8.99Q25.31 8.53 24.89 8.22L24.89 8.22L24.89 8.22Q24.46 7.91 23.83 7.91L23.83 7.91L23.83 7.91Q23.45 7.91 23.02 8.03L23.02 8.03L23.02 8.03Q22.60 8.15 22.36 8.48L22.36 8.48L22.36 8.48Q22.23 8.26 22.23 7.90L22.23 7.90L22.23 7.90Q22.22 7.53 22.40 7.18L22.40 7.18L22.40 7.18Q22.58 6.83 22.97 6.57L22.97 6.57L22.97 6.57Q23.37 6.30 24.07 6.27L24.07 6.27L24.07 6.27Q24.74 6.26 25.36 6.52L25.36 6.52L25.36 6.52Q25.98 6.79 26.47 7.28L26.47 7.28L26.47 7.28Q26.95 7.77 27.24 8.46L27.24 8.46L27.24 8.46Q27.52 9.16 27.52 9.98L27.52 9.98L27.52 9.98Q27.52 10.84 27.26 11.52L27.26 11.52L27.26 11.52Q26.99 12.19 26.54 12.67L26.54 12.67L26.54 12.67Q26.10 13.15 25.52 13.41L25.52 13.41L25.52 13.41Q24.95 13.68 24.33 13.70L24.33 13.70L24.33 13.70Q23.72 13.72 23.10 13.50L23.10 13.50L23.10 13.50Q22.48 13.27 21.97 12.75L21.97 12.75ZM37.53 13.51L37.53 12.74L37.53 12.74Q37.02 13.24 36.41 13.48L36.41 13.48L36.41 13.48Q35.80 13.71 35.18 13.69L35.18 13.69L35.18 13.69Q34.57 13.66 33.99 13.41L33.99 13.41L33.99 13.41Q33.42 13.15 32.98 12.66L32.98 12.66L32.98 12.66Q32.54 12.18 32.27 11.51L32.27 11.51L32.27 11.51Q32.00 10.84 32.00 9.98L32.00 9.98L32.00 9.98Q32.00 9.16 32.29 8.47L32.29 8.47L32.29 8.47Q32.58 7.78 33.06 7.29L33.06 7.29L33.06 7.29Q33.54 6.79 34.16 6.52L34.16 6.52L34.16 6.52Q34.78 6.26 35.45 6.29L35.45 6.29L35.45 6.29Q36.15 6.31 36.55 6.58L36.55 6.58L36.55 6.58Q36.95 6.85 37.12 7.20L37.12 7.20L37.12 7.20Q37.30 7.55 37.29 7.90L37.29 7.90L37.29 7.90Q37.28 8.26 37.16 8.48L37.16 8.48L37.16 8.48Q36.92 8.15 36.49 8.03L36.49 8.03L36.49 8.03Q36.06 7.91 35.69 7.91L35.69 7.91L35.69 7.91Q35.06 7.91 34.63 8.22L34.63 8.22L34.63 8.22Q34.20 8.53 33.99 8.99L33.99 8.99L33.99 8.99Q33.77 9.45 33.77 9.99L33.77 9.99L33.77 9.99Q33.77 10.53 33.98 10.99L33.98 10.99L33.98 10.99Q34.19 11.45 34.61 11.76L34.61 11.76L34.61 11.76Q35.03 12.07 35.67 12.07L35.67 12.07L35.67 12.07Q36.22 12.07 36.58 11.82L36.58 11.82L36.58 11.82Q36.93 11.58 37.14 11.19L37.14 11.19L37.14 11.19Q37.35 10.79 37.44 10.31L37.44 10.31L37.44 10.31Q37.53 9.83 37.53 9.35L37.53 9.35L37.53 3.74L37.53 3.74Q38.36 3.77 38.83 4.19L38.83 4.19L38.83 4.19Q39.30 4.61 39.30 5.17L39.30 5.17L39.30 13.51L37.53 13.51ZM45.64 10.72L45.64 10.72L45.64 10.72Q44.88 10.92 44.26 10.86L44.26 10.86L44.26 10.86Q43.64 10.81 43.24 10.56L43.24 10.56L43.24 10.56Q42.84 10.32 42.71 9.91L42.71 9.91L42.71 9.91Q42.57 9.49 42.78 8.97L42.78 8.97L42.78 8.97Q43.22 9.34 43.79 9.37L43.79 9.37L43.79 9.37Q44.37 9.41 44.90 9.35L44.90 9.35L44.90 9.35Q45.35 9.31 45.58 9.16L45.58 9.16L45.58 9.16Q45.81 9.00 45.86 8.80L45.86 8.80L45.86 8.80Q45.92 8.60 45.82 8.37L45.82 8.37L45.82 8.37Q45.72 8.15 45.51 7.97L45.51 7.97L45.51 7.97Q45.29 7.78 44.98 7.67L44.98 7.67L44.98 7.67Q44.66 7.56 44.28 7.57L44.28 7.57L44.28 7.57Q43.88 7.60 43.51 7.77L43.51 7.77L43.51 7.77Q43.15 7.94 42.87 8.23L42.87 8.23L42.87 8.23Q42.59 8.53 42.42 8.92L42.42 8.92L42.42 8.92Q42.25 9.31 42.24 9.79L42.24 9.79L42.24 9.79Q42.22 10.18 42.33 10.56L42.33 10.56L42.33 10.56Q42.43 10.93 42.64 11.25L42.64 11.25L42.64 11.25Q42.85 11.56 43.15 11.78L43.15 11.78L43.15 11.78Q43.44 12.00 43.82 12.05L43.82 12.05L43.82 12.05Q44.35 12.15 44.91 11.98L44.91 11.98L44.91 11.98Q45.47 11.82 45.91 11.37L45.91 11.37L47.38 12.08L47.38 12.08Q46.80 12.94 46.02 13.31L46.02 13.31L46.02 13.31Q45.23 13.68 44.23 13.68L44.23 13.68L44.23 13.68Q43.29 13.68 42.58 13.35L42.58 13.35L42.58 13.35Q41.87 13.02 41.41 12.47L41.41 12.47L41.41 12.47Q40.94 11.93 40.71 11.24L40.71 11.24L40.71 11.24Q40.47 10.54 40.49 9.82L40.49 9.82L40.49 9.82Q40.50 9.10 40.77 8.41L40.77 8.41L40.77 8.41Q41.03 7.71 41.54 7.18L41.54 7.18L41.54 7.18Q42.10 6.58 42.85 6.33L42.85 6.33L42.85 6.33Q43.60 6.08 44.38 6.08L44.38 6.08L44.38 6.08Q45.25 6.08 45.88 6.37L45.88 6.37L45.88 6.37Q46.51 6.66 46.90 7.12L46.90 7.12L46.90 7.12Q47.29 7.57 47.42 8.13L47.42 8.13L47.42 8.13Q47.54 8.68 47.40 9.20L47.40 9.20L47.40 9.20Q47.25 9.72 46.82 10.13L46.82 10.13L46.82 10.13Q46.38 10.54 45.64 10.72ZM51.35 13.52L48.26 6.29L50.12 6.29L51.94 10.56L53.31 7.39L53.31 7.39Q53.45 7.08 53.66 6.83L53.66 6.83L53.66 6.83Q53.87 6.57 54.15 6.40L54.15 6.40L54.15 6.40Q54.43 6.23 54.80 6.18L54.80 6.18L54.80 6.18Q55.17 6.13 55.64 6.23L55.64 6.23L52.51 13.52L51.35 13.52ZM60.97 10.72L60.97 10.72L60.97 10.72Q60.21 10.92 59.59 10.86L59.59 10.86L59.59 10.86Q58.97 10.81 58.57 10.56L58.57 10.56L58.57 10.56Q58.17 10.32 58.04 9.91L58.04 9.91L58.04 9.91Q57.90 9.49 58.11 8.97L58.11 8.97L58.11 8.97Q58.55 9.34 59.12 9.37L59.12 9.37L59.12 9.37Q59.70 9.41 60.23 9.35L60.23 9.35L60.23 9.35Q60.68 9.31 60.91 9.16L60.91 9.16L60.91 9.16Q61.14 9.00 61.19 8.80L61.19 8.80L61.19 8.80Q61.25 8.60 61.15 8.37L61.15 8.37L61.15 8.37Q61.05 8.15 60.84 7.97L60.84 7.97L60.84 7.97Q60.62 7.78 60.31 7.67L60.31 7.67L60.31 7.67Q59.99 7.56 59.61 7.57L59.61 7.57L59.61 7.57Q59.21 7.60 58.84 7.77L58.84 7.77L58.84 7.77Q58.48 7.94 58.20 8.23L58.20 8.23L58.20 8.23Q57.92 8.53 57.75 8.92L57.75 8.92L57.75 8.92Q57.58 9.31 57.57 9.79L57.57 9.79L57.57 9.79Q57.55 10.18 57.66 10.56L57.66 10.56L57.66 10.56Q57.76 10.93 57.97 11.25L57.97 11.25L57.97 11.25Q58.18 11.56 58.48 11.78L58.48 11.78L58.48 11.78Q58.77 12.00 59.15 12.05L59.15 12.05L59.15 12.05Q59.68 12.15 60.24 11.98L60.24 11.98L60.24 11.98Q60.80 11.82 61.24 11.37L61.24 11.37L62.71 12.08L62.71 12.08Q62.13 12.94 61.35 13.31L61.35 13.31L61.35 13.31Q60.56 13.68 59.56 13.68L59.56 13.68L59.56 13.68Q58.62 13.68 57.91 13.35L57.91 13.35L57.91 13.35Q57.20 13.02 56.74 12.47L56.74 12.47L56.74 12.47Q56.27 11.93 56.04 11.24L56.04 11.24L56.04 11.24Q55.80 10.54 55.82 9.82L55.82 9.82L55.82 9.82Q55.83 9.10 56.10 8.41L56.10 8.41L56.10 8.41Q56.36 7.71 56.87 7.18L56.87 7.18L56.87 7.18Q57.43 6.58 58.18 6.33L58.18 6.33L58.18 6.33Q58.93 6.08 59.71 6.08L59.71 6.08L59.71 6.08Q60.58 6.08 61.21 6.37L61.21 6.37L61.21 6.37Q61.84 6.66 62.23 7.12L62.23 7.12L62.23 7.12Q62.62 7.57 62.75 8.13L62.75 8.13L62.75 8.13Q62.87 8.68 62.73 9.20L62.73 9.20L62.73 9.20Q62.58 9.72 62.15 10.13L62.15 10.13L62.15 10.13Q61.71 10.54 60.97 10.72ZM65.77 3.72L65.77 3.72L65.77 13.52L64.01 13.52L64.01 5.15L64.01 5.15Q64.01 4.48 64.48 4.10L64.48 4.10L64.48 4.10Q64.96 3.71 65.77 3.72ZM70.69 6.10L70.69 6.10L70.69 6.10Q71.79 6.10 72.65 6.64L72.65 6.64L72.65 6.64Q73.51 7.17 74.00 7.99L74.00 7.99L74.00 7.99Q74.49 8.82 74.53 9.83L74.53 9.83L74.53 9.83Q74.56 10.84 74.02 11.80L74.02 11.80L74.02 11.80Q73.56 12.60 72.81 13.08L72.81 13.08L72.81 13.08Q72.07 13.55 71.23 13.67L71.23 13.67L71.23 13.67Q70.39 13.79 69.55 13.53L69.55 13.53L69.55 13.53Q68.70 13.27 68.03 12.60L68.03 12.60L68.03 12.60Q67.27 11.83 67.02 10.82L67.02 10.82L67.02 10.82Q66.77 9.81 67.06 8.81L67.06 8.81L67.06 8.81Q67.19 8.40 67.47 8.13L67.47 8.13L67.47 8.13Q67.76 7.87 68.12 7.74L68.12 7.74L68.12 7.74Q68.49 7.62 68.88 7.63L68.88 7.63L68.88 7.63Q69.27 7.64 69.61 7.79L69.61 7.79L69.61 7.79Q69.94 7.94 70.18 8.21L70.18 8.21L70.18 8.21Q70.41 8.48 70.45 8.88L70.45 8.88L70.45 8.88Q70.24 8.72 69.94 8.71L69.94 8.71L69.94 8.71Q69.65 8.71 69.38 8.84L69.38 8.84L69.38 8.84Q69.10 8.97 68.92 9.25L68.92 9.25L68.92 9.25Q68.73 9.52 68.73 9.93L68.73 9.93L68.73 9.93Q68.73 10.63 69.02 11.09L69.02 11.09L69.02 11.09Q69.31 11.55 69.76 11.78L69.76 11.78L69.76 11.78Q70.20 12.01 70.71 12.01L70.71 12.01L70.71 12.01Q71.22 12.01 71.66 11.77L71.66 11.77L71.66 11.77Q72.10 11.54 72.39 11.07L72.39 11.07L72.39 11.07Q72.69 10.60 72.69 9.90L72.69 9.90L72.69 9.90Q72.69 9.35 72.49 8.93L72.49 8.93L72.49 8.93Q72.30 8.51 71.97 8.24L71.97 8.24L71.97 8.24Q71.64 7.97 71.20 7.86L71.20 7.86L71.20 7.86Q70.77 7.76 70.28 7.85L70.28 7.85L70.28 7.85Q70.07 7.60 69.77 7.46L69.77 7.46L69.77 7.46Q69.47 7.31 69.12 7.26L69.12 7.26L69.12 7.26Q68.77 7.21 68.42 7.27L68.42 7.27L68.42 7.27Q68.07 7.34 67.76 7.52L67.76 7.52L67.76 7.52Q68.32 6.85 69.06 6.48L69.06 6.48L69.06 6.48Q69.80 6.10 70.69 6.10ZM77.46 6.29L77.46 7.07L77.46 7.07Q77.98 6.55 78.60 6.31L78.60 6.31L78.60 6.31Q79.23 6.08 79.86 6.10L79.86 6.10L79.86 6.10Q80.49 6.13 81.07 6.40L81.07 6.40L81.07 6.40Q81.66 6.66 82.11 7.15L82.11 7.15L82.11 7.15Q82.56 7.64 82.83 8.34L82.83 8.34L82.83 8.34Q83.10 9.03 83.10 9.90L83.10 9.90L83.10 9.90Q83.10 10.74 82.81 11.44L82.81 11.44L82.81 11.44Q82.52 12.14 82.03 12.64L82.03 12.64L82.03 12.64Q81.54 13.15 80.90 13.42L80.90 13.42L80.90 13.42Q80.26 13.69 79.59 13.66L79.59 13.66L79.59 13.66Q78.89 13.64 78.48 13.36L78.48 13.36L78.48 13.36Q78.08 13.09 77.90 12.73L77.90 12.73L77.90 12.73Q77.71 12.38 77.71 12.01L77.71 12.01L77.71 12.01Q77.71 11.63 77.84 11.41L77.84 11.41L77.84 11.41Q77.97 11.58 78.14 11.70L78.14 11.70L78.14 11.70Q78.32 11.82 78.52 11.88L78.52 11.88L78.52 11.88Q78.72 11.94 78.94 11.97L78.94 11.97L78.94 11.97Q79.16 12.00 79.35 12.00L79.35 12.00L79.35 12.00Q80.00 12.00 80.43 11.68L80.43 11.68L80.43 11.68Q80.86 11.37 81.08 10.90L81.08 10.90L81.08 10.90Q81.30 10.43 81.30 9.88L81.30 9.88L81.30 9.88Q81.30 9.32 81.09 8.86L81.09 8.86L81.09 8.86Q80.88 8.39 80.44 8.07L80.44 8.07L80.44 8.07Q80.01 7.76 79.35 7.76L79.35 7.76L79.35 7.76Q78.81 7.76 78.44 8.01L78.44 8.01L78.44 8.01Q78.08 8.26 77.86 8.66L77.86 8.66L77.86 8.66Q77.64 9.06 77.55 9.55L77.55 9.55L77.55 9.55Q77.46 10.04 77.46 10.53L77.46 10.53L77.46 16.25L75.66 16.25L75.66 7.74L75.66 7.74Q75.66 7.38 75.80 7.10L75.80 7.10L75.80 7.10Q75.95 6.82 76.20 6.63L76.20 6.63L76.20 6.63Q76.45 6.44 76.78 6.36L76.78 6.36L76.78 6.36Q77.10 6.27 77.46 6.29L77.46 6.29ZM86.04 6.29L86.04 7.11L86.04 7.11Q86.16 6.86 86.38 6.68L86.38 6.68L86.38 6.68Q86.60 6.50 86.88 6.38L86.88 6.38L86.88 6.38Q87.16 6.26 87.46 6.19L87.46 6.19L87.46 6.19Q87.75 6.12 88.00 6.10L88.00 6.10L88.00 6.10Q88.54 6.06 89.06 6.24L89.06 6.24L89.06 6.24Q89.59 6.41 90.01 6.85L90.01 6.85L90.01 6.85Q90.13 6.99 90.24 7.13L90.24 7.13L90.24 7.13Q90.34 7.28 90.41 7.46L90.41 7.46L90.41 7.46Q90.45 7.15 90.66 6.91L90.66 6.91L90.66 6.91Q90.87 6.66 91.17 6.49L91.17 6.49L91.17 6.49Q91.48 6.31 91.83 6.22L91.83 6.22L91.83 6.22Q92.18 6.12 92.51 6.10L92.51 6.10L92.51 6.10Q93.06 6.06 93.58 6.24L93.58 6.24L93.58 6.24Q94.11 6.41 94.56 6.85L94.56 6.85L94.56 6.85Q95.19 7.50 95.19 8.74L95.19 8.74L95.19 13.52L93.37 13.52L93.37 13.52Q93.37 13.29 93.37 12.88L93.37 12.88L93.37 12.88Q93.37 12.47 93.36 11.99L93.36 11.99L93.36 11.99Q93.35 11.51 93.35 10.99L93.35 10.99L93.35 10.99Q93.35 10.47 93.34 10.01L93.34 10.01L93.34 10.01Q93.32 9.55 93.30 9.18L93.30 9.18L93.30 9.18Q93.28 8.82 93.25 8.65L93.25 8.65L93.25 8.65Q93.10 7.74 92.23 7.70L92.23 7.70L92.23 7.70Q91.74 7.69 91.41 7.98L91.41 7.98L91.41 7.98Q91.08 8.27 91.10 8.69L91.10 8.69L91.10 8.69Q90.97 8.65 90.85 8.55L90.85 8.55L90.85 8.55Q90.72 8.44 90.62 8.30L90.62 8.30L90.62 8.30Q90.64 8.41 90.64 8.52L90.64 8.52L90.64 8.52Q90.64 8.62 90.64 8.74L90.64 8.74L90.64 13.52L88.84 13.52L88.84 13.52Q88.84 13.29 88.85 12.88L88.85 12.88L88.85 12.88Q88.86 12.47 88.86 11.99L88.86 11.99L88.86 11.99Q88.86 11.51 88.86 10.99L88.86 10.99L88.86 10.99Q88.86 10.47 88.84 10.01L88.84 10.01L88.84 10.01Q88.83 9.55 88.80 9.18L88.80 9.18L88.80 9.18Q88.77 8.82 88.73 8.65L88.73 8.65L88.73 8.65Q88.62 8.20 88.31 7.98L88.31 7.98L88.31 7.98Q88.00 7.76 87.64 7.76L87.64 7.76L87.64 7.76Q87.15 7.76 86.88 8.02L86.88 8.02L86.88 8.02Q86.62 8.27 86.62 8.69L86.62 8.69L86.62 8.69Q86.45 8.64 86.28 8.46L86.28 8.46L86.28 8.46Q86.11 8.29 86.04 8.09L86.04 8.09L86.04 13.52L84.22 13.52L84.22 6.29L86.04 6.29ZM101.53 10.72L101.53 10.72L101.53 10.72Q100.77 10.92 100.15 10.86L100.15 10.86L100.15 10.86Q99.53 10.81 99.13 10.56L99.13 10.56L99.13 10.56Q98.73 10.32 98.59 9.91L98.59 9.91L98.59 9.91Q98.46 9.49 98.67 8.97L98.67 8.97L98.67 8.97Q99.11 9.34 99.68 9.37L99.68 9.37L99.68 9.37Q100.25 9.41 100.79 9.35L100.79 9.35L100.79 9.35Q101.23 9.31 101.46 9.16L101.46 9.16L101.46 9.16Q101.70 9.00 101.75 8.80L101.75 8.80L101.75 8.80Q101.81 8.60 101.71 8.37L101.71 8.37L101.71 8.37Q101.61 8.15 101.39 7.97L101.39 7.97L101.39 7.97Q101.18 7.78 100.86 7.67L100.86 7.67L100.86 7.67Q100.55 7.56 100.17 7.57L100.17 7.57L100.17 7.57Q99.76 7.60 99.40 7.77L99.40 7.77L99.40 7.77Q99.04 7.94 98.76 8.23L98.76 8.23L98.76 8.23Q98.48 8.53 98.31 8.92L98.31 8.92L98.31 8.92Q98.14 9.31 98.13 9.79L98.13 9.79L98.13 9.79Q98.11 10.18 98.22 10.56L98.22 10.56L98.22 10.56Q98.32 10.93 98.53 11.25L98.53 11.25L98.53 11.25Q98.74 11.56 99.04 11.78L99.04 11.78L99.04 11.78Q99.33 12.00 99.71 12.05L99.71 12.05L99.71 12.05Q100.24 12.15 100.80 11.98L100.80 11.98L100.80 11.98Q101.36 11.82 101.79 11.37L101.79 11.37L103.26 12.08L103.26 12.08Q102.69 12.94 101.91 13.31L101.91 13.31L101.91 13.31Q101.12 13.68 100.11 13.68L100.11 13.68L100.11 13.68Q99.18 13.68 98.47 13.35L98.47 13.35L98.47 13.35Q97.76 13.02 97.29 12.47L97.29 12.47L97.29 12.47Q96.82 11.93 96.59 11.24L96.59 11.24L96.59 11.24Q96.36 10.54 96.38 9.82L96.38 9.82L96.38 9.82Q96.39 9.10 96.66 8.41L96.66 8.41L96.66 8.41Q96.92 7.71 97.43 7.18L97.43 7.18L97.43 7.18Q97.99 6.58 98.73 6.33L98.73 6.33L98.73 6.33Q99.48 6.08 100.27 6.08L100.27 6.08L100.27 6.08Q101.14 6.08 101.77 6.37L101.77 6.37L101.77 6.37Q102.40 6.66 102.79 7.12L102.79 7.12L102.79 7.12Q103.18 7.57 103.31 8.13L103.31 8.13L103.31 8.13Q103.43 8.68 103.28 9.20L103.28 9.20L103.28 9.20Q103.14 9.72 102.70 10.13L102.70 10.13L102.70 10.13Q102.27 10.54 101.53 10.72ZM106.37 6.27L106.37 7.11L106.37 7.11Q106.48 6.86 106.72 6.68L106.72 6.68L106.72 6.68Q106.95 6.50 107.23 6.37L107.23 6.37L107.23 6.37Q107.51 6.24 107.80 6.17L107.80 6.17L107.80 6.17Q108.09 6.10 108.35 6.09L108.35 6.09L108.35 6.09Q108.88 6.06 109.40 6.24L109.40 6.24L109.40 6.24Q109.91 6.41 110.35 6.85L110.35 6.85L110.35 6.85Q110.98 7.50 110.98 8.74L110.98 8.74L110.98 13.52L109.19 13.52L109.19 13.52Q109.19 13.29 109.19 12.88L109.19 12.88L109.19 12.88Q109.20 12.47 109.20 11.99L109.20 11.99L109.20 11.99Q109.20 11.51 109.20 10.99L109.20 10.99L109.20 10.99Q109.20 10.47 109.19 10.01L109.19 10.01L109.19 10.01Q109.17 9.55 109.14 9.18L109.14 9.18L109.14 9.18Q109.12 8.82 109.07 8.65L109.07 8.65L109.07 8.65Q108.96 8.20 108.65 7.98L108.65 7.98L108.65 7.98Q108.33 7.76 107.97 7.76L107.97 7.76L107.97 7.76Q107.49 7.76 107.23 8.02L107.23 8.02L107.23 8.02Q106.96 8.27 106.96 8.69L106.96 8.69L106.96 8.69Q106.79 8.64 106.62 8.46L106.62 8.46L106.62 8.46Q106.46 8.29 106.37 8.09L106.37 8.09L106.37 8.47L106.37 13.52L104.57 13.52L104.57 6.27L106.37 6.27ZM113.13 6.33L113.13 5.15L113.13 5.15Q113.13 4.76 113.28 4.49L113.28 4.49L113.28 4.49Q113.43 4.21 113.67 4.05L113.67 4.05L113.67 4.05Q113.92 3.88 114.24 3.80L114.24 3.80L114.24 3.80Q114.56 3.72 114.90 3.72L114.90 3.72L114.90 6.33L116.52 6.33L116.52 6.33Q116.52 6.61 116.47 6.87L116.47 6.87L116.47 6.87Q116.42 7.14 116.28 7.36L116.28 7.36L116.28 7.36Q116.14 7.57 115.91 7.71L115.91 7.71L115.91 7.71Q115.67 7.84 115.29 7.84L115.29 7.84L114.90 7.84L114.90 11.80L114.90 11.80Q114.90 12.03 115.07 12.12L115.07 12.12L115.07 12.12Q115.23 12.21 115.46 12.20L115.46 12.20L115.46 12.20Q115.68 12.19 115.91 12.10L115.91 12.10L115.91 12.10Q116.13 12.00 116.23 11.83L116.23 11.83L116.23 11.83Q116.41 12.29 116.25 12.65L116.25 12.65L116.25 12.65Q116.09 13.01 115.75 13.22L115.75 13.22L115.75 13.22Q115.40 13.44 114.95 13.50L114.95 13.50L114.95 13.50Q114.49 13.57 114.09 13.43L114.09 13.43L114.09 13.43Q113.69 13.30 113.41 12.96L113.41 12.96L113.41 12.96Q113.13 12.61 113.13 12.03L113.13 12.03L113.13 7.84L112.24 7.84L112.24 6.33L113.13 6.33Z"></path></g><defs data-v-fde0c5aa=""></defs><g data-v-fde0c5aa="" id="f62c8a78-d2b4-4658-9c62-d061e425ffd7" stroke="none" fill="#ffffff" transform="matrix(0.49397239089012146,0,0,0.49397239089012146,40,134.19312901645694)"><path d="M61.735 3.26H2.266C1.017 3.26 0 4.251 0 5.47v42.657c0 1.264 1.017 2.291 2.266 2.291h20.831l-1.005 7.031h-4.654v3.29h29.125v-3.29H41.91l-1.006-7.031h20.832c1.249 0 2.265-1.027 2.265-2.291V5.47C64 4.251 62.984 3.26 61.735 3.26zM24.112 57.45l1.005-7.031h13.766l1.006 7.031H24.112zM62 48.127c0 .158-.121.291-.265.291H2.266c-.144 0-.266-.132-.266-.291v-4.16h60v4.16zm0-6.16H2V5.47c0-.1.109-.21.266-.21h59.47c.156 0 .264.111.264.21v36.497z"></path><path d="M15.887 23.743v1.383l10.644 5.484.183.093v-1.855l-8.805-4.413 8.736-4.379.069-.034v-1.856l-10.76 5.542zM27.885 31.535h1.796l6.412-16.606.066-.17h-1.818zM37.286 18.166v1.856l8.87 4.413-8.801 4.378-.069.035v1.855l10.827-5.553v-1.43l-10.645-5.46z"></path></g></svg> 